<mxfile host="65bd71144e">
    <diagram id="Ty2NjuelVkugs8TiWOgl" name="第 1 页">
        <mxGraphModel dx="2805" dy="1739" grid="1" gridSize="10" guides="1" tooltips="1" connect="1" arrows="1" fold="1" page="1" pageScale="1" pageWidth="1920" pageHeight="1200" background="#000000" math="0" shadow="0">
            <root>
                <mxCell id="0"/>
                <mxCell id="1" parent="0"/>
                <mxCell id="179" value="文档组件流程图" style="swimlane;childLayout=stackLayout;resizeParent=1;resizeParentMax=0;startSize=20;rounded=1;" parent="1" vertex="1">
                    <mxGeometry x="-80" y="-310" width="920" height="820" as="geometry"/>
                </mxCell>
                <mxCell id="180" value="wap" style="swimlane;startSize=20;rounded=1;strokeWidth=0;" parent="179" vertex="1">
                    <mxGeometry y="20" width="920" height="800" as="geometry">
                        <mxRectangle y="20" width="30" height="771" as="alternateBounds"/>
                    </mxGeometry>
                </mxCell>
                <mxCell id="181" style="edgeStyle=none;html=1;exitX=0.5;exitY=1;exitDx=0;exitDy=0;entryX=0.5;entryY=0;entryDx=0;entryDy=0;" parent="180" source="182" edge="1">
                    <mxGeometry relative="1" as="geometry">
                        <mxPoint x="210" y="104" as="targetPoint"/>
                    </mxGeometry>
                </mxCell>
                <mxCell id="182" value="开始" style="rounded=1;whiteSpace=wrap;html=1;fillColor=#f0a30a;fontColor=#000000;strokeColor=#BD7000;" parent="180" vertex="1">
                    <mxGeometry x="165" y="40" width="90" height="30" as="geometry"/>
                </mxCell>
                <mxCell id="183" value="" style="edgeStyle=none;html=1;fontSize=10;" parent="180" edge="1">
                    <mxGeometry relative="1" as="geometry">
                        <mxPoint x="210" y="174" as="targetPoint"/>
                        <mxPoint x="209.67105263157896" y="134" as="sourcePoint"/>
                    </mxGeometry>
                </mxCell>
                <mxCell id="198" value="结束" style="rounded=1;whiteSpace=wrap;html=1;fillColor=#f0a30a;fontColor=#000000;strokeColor=#BD7000;" parent="180" vertex="1">
                    <mxGeometry x="585" y="631" width="90" height="30" as="geometry"/>
                </mxCell>
                <mxCell id="221" value="&lt;span style=&quot;font-size: 10px&quot;&gt;分组操作面板&lt;/span&gt;" style="rounded=0;whiteSpace=wrap;html=1;" parent="180" vertex="1">
                    <mxGeometry x="159" y="401" width="90" height="40" as="geometry"/>
                </mxCell>
                <mxCell id="290" value="&lt;span style=&quot;font-size: 10px&quot;&gt;点击分组讨论菜单&lt;/span&gt;" style="rounded=0;whiteSpace=wrap;html=1;" parent="180" vertex="1">
                    <mxGeometry x="165" y="103" width="95" height="30" as="geometry"/>
                </mxCell>
                <mxCell id="302" value="是" style="edgeStyle=none;html=1;fontSize=10;entryX=0.5;entryY=0;entryDx=0;entryDy=0;" parent="180" source="291" target="426" edge="1">
                    <mxGeometry relative="1" as="geometry">
                        <mxPoint x="260" y="311" as="targetPoint"/>
                    </mxGeometry>
                </mxCell>
                <mxCell id="420" style="edgeStyle=none;html=1;exitX=0;exitY=0.5;exitDx=0;exitDy=0;entryX=1;entryY=0.5;entryDx=0;entryDy=0;" edge="1" parent="180" source="291" target="419">
                    <mxGeometry relative="1" as="geometry"/>
                </mxCell>
                <mxCell id="421" value="否" style="edgeLabel;html=1;align=center;verticalAlign=middle;resizable=0;points=[];" vertex="1" connectable="0" parent="420">
                    <mxGeometry x="-0.0778" y="-1" relative="1" as="geometry">
                        <mxPoint as="offset"/>
                    </mxGeometry>
                </mxCell>
                <mxCell id="291" value="&lt;font style=&quot;font-size: 10px&quot;&gt;是否已经分过组？&lt;/font&gt;" style="rhombus;whiteSpace=wrap;html=1;" parent="180" vertex="1">
                    <mxGeometry x="160" y="174" width="100" height="60" as="geometry"/>
                </mxCell>
                <mxCell id="372" value="有" style="edgeStyle=none;html=1;exitX=0.5;exitY=1;exitDx=0;exitDy=0;entryX=0.5;entryY=0;entryDx=0;entryDy=0;fontSize=10;strokeWidth=1;" parent="180" source="304" target="311" edge="1">
                    <mxGeometry relative="1" as="geometry"/>
                </mxCell>
                <mxCell id="304" value="&lt;span style=&quot;font-size: 10px&quot;&gt;有无数据？&lt;/span&gt;" style="rhombus;whiteSpace=wrap;html=1;" parent="180" vertex="1">
                    <mxGeometry x="580" y="451" width="100" height="39" as="geometry"/>
                </mxCell>
                <mxCell id="373" style="edgeStyle=none;html=1;exitX=0.5;exitY=1;exitDx=0;exitDy=0;entryX=0.5;entryY=0;entryDx=0;entryDy=0;fontSize=10;strokeWidth=1;" parent="180" source="311" target="198" edge="1">
                    <mxGeometry relative="1" as="geometry"/>
                </mxCell>
                <mxCell id="311" value="&lt;span style=&quot;font-size: 10px&quot;&gt;展示激活的文档或白板&lt;/span&gt;" style="rounded=0;whiteSpace=wrap;html=1;" parent="180" vertex="1">
                    <mxGeometry x="585" y="541" width="90" height="40" as="geometry"/>
                </mxCell>
                <mxCell id="422" value="设置完成" style="edgeStyle=none;html=1;exitX=0.5;exitY=1;exitDx=0;exitDy=0;" edge="1" parent="180" source="419">
                    <mxGeometry relative="1" as="geometry">
                        <mxPoint x="120" y="351" as="targetPoint"/>
                        <Array as="points">
                            <mxPoint x="60" y="308"/>
                            <mxPoint x="90" y="341"/>
                        </Array>
                    </mxGeometry>
                </mxCell>
                <mxCell id="419" value="&lt;span style=&quot;font-size: 10px&quot;&gt;分组设置弹窗&lt;/span&gt;" style="rounded=0;whiteSpace=wrap;html=1;" vertex="1" parent="180">
                    <mxGeometry x="20" y="189" width="80" height="30" as="geometry"/>
                </mxCell>
                <mxCell id="426" value="&lt;span style=&quot;font-size: 10px&quot;&gt;分组操作面板&lt;br&gt;是否显示？&lt;/span&gt;" style="rhombus;whiteSpace=wrap;html=1;" vertex="1" parent="180">
                    <mxGeometry x="159" y="301" width="100" height="60" as="geometry"/>
                </mxCell>
            </root>
        </mxGraphModel>
    </diagram>
</mxfile>